<svg xmlns="http://www.w3.org/2000/svg" xmlns:xlink="http://www.w3.org/1999/xlink" viewBox="0 0 371.77 118.62"><defs><style>.cls-1,.cls-4{fill:none;}.cls-2{clip-path:url(#clip-path);}.cls-3{fill:#a2cd3a;}.cls-4{stroke:#fff;stroke-miterlimit:10;stroke-width:0.81px;}.cls-5{fill:#e8aacd;}</style><clipPath id="clip-path" transform="translate(0 0.03)"><rect class="cls-1" width="371.79" height="118.58"/></clipPath></defs><title>Asset 8</title><g id="Layer_2" data-name="Layer 2"><g id="Layer_1-2" data-name="Layer 1"><g class="cls-2"><g class="cls-2"><path class="cls-3" d="M59.79,14.2a21.29,21.29,0,0,1,4.65-.41,24.8,24.8,0,0,1,3.66.2c3.37.28,5.84.93,7.39,2s2.89,3,4,5.88a17.11,17.11,0,0,1,1.39,6.81q0,6.18-5.43,24.53-5,16.92-12,26.4A44.44,44.44,0,0,1,45.6,94.05q-4.92,2.28-17.81,2.28-12.61,0-15.92-1.23a28.27,28.27,0,0,0-4.54-1.66,9.27,9.27,0,0,1-4.1-3.71A16.42,16.42,0,0,1,.65,83.34,31.68,31.68,0,0,1,.4,79.83,42.36,42.36,0,0,1,2,69a38.06,38.06,0,0,1,4.1-10q3.43-5.56,7.39-7.73t11.81-2.58q9.45-.82,10.61-1.45c1.52-.68,3-2.23,4.61-4.63A27.87,27.87,0,0,0,44,34.82a40.06,40.06,0,0,1,6.67-13.49Q55,15.65,59.79,14.2" transform="translate(0 0.03)"/><path class="cls-4" d="M59.79,14.2a21.29,21.29,0,0,1,4.65-.41,24.8,24.8,0,0,1,3.66.2c3.37.28,5.84.93,7.39,2s2.89,3,4,5.88a17.11,17.11,0,0,1,1.39,6.81q0,6.18-5.43,24.53-5,16.92-12,26.4A44.44,44.44,0,0,1,45.6,94.05q-4.92,2.28-17.81,2.28-12.61,0-15.92-1.23a28.27,28.27,0,0,0-4.54-1.66,9.27,9.27,0,0,1-4.1-3.71A16.42,16.42,0,0,1,.65,83.34,31.68,31.68,0,0,1,.4,79.83,42.36,42.36,0,0,1,2,69a38.06,38.06,0,0,1,4.1-10q3.43-5.56,7.39-7.73t11.81-2.58q9.45-.82,10.61-1.45c1.52-.68,3-2.23,4.61-4.63A27.87,27.87,0,0,0,44,34.82a40.06,40.06,0,0,1,6.67-13.49Q55,15.65,59.79,14.2Z" transform="translate(0 0.03)"/><path class="cls-3" d="M134.81,16.26q1.63-.62,12.75-.62H152q14.76.42,17.8,2.48C172,19.64,173.37,21,174,22.25a8.13,8.13,0,0,1,.63,3.29,15.1,15.1,0,0,1-2.27,8.05q-6.57,11.35-27.78,11.55-13.28.4-13.27,4.57,0,1,2.22,1.23t12.18.63q11.73.2,14.27,1.13t2.53,4.85q0,5.56-5.62,15.87T145.29,89.1c-3.54,3.17-6.59,5.12-9.16,5.88s-7.89,1.13-16,1.13q-14.28,0-20.14-1.52a13.78,13.78,0,0,1-8.66-6.1,7.77,7.77,0,0,1-1.14-4.12,21.93,21.93,0,0,1,1.26-6.18q2.67-8.46,9-12.28t18.38-4q14.13-.21,16-3.3,1.13-1.85.75-2.28-.12-.2-11-1-20.83-1.44-20.83-6.39,0-3.72,7.2-14,10.08-14.3,23.74-18.6" transform="translate(0 0.03)"/><path class="cls-4" d="M134.81,16.26q1.63-.62,12.75-.62H152q14.76.42,17.8,2.48C172,19.64,173.37,21,174,22.25a8.13,8.13,0,0,1,.63,3.29,15.1,15.1,0,0,1-2.27,8.05q-6.57,11.35-27.78,11.55-13.28.4-13.27,4.57,0,1,2.22,1.23t12.18.63q11.73.2,14.27,1.13t2.53,4.85q0,5.56-5.62,15.87T145.29,89.1c-3.54,3.17-6.59,5.12-9.16,5.88s-7.89,1.13-16,1.13q-14.28,0-20.14-1.52a13.78,13.78,0,0,1-8.66-6.1,7.77,7.77,0,0,1-1.14-4.12,21.93,21.93,0,0,1,1.26-6.18q2.67-8.46,9-12.28t18.38-4q14.13-.21,16-3.3,1.13-1.85.75-2.28-.12-.2-11-1-20.83-1.44-20.83-6.39,0-3.72,7.2-14Q121.15,20.57,134.81,16.26Z" transform="translate(0 0.03)"/><path class="cls-3" d="M218.66,17.29Q220.57,15,228.77,15a20.62,20.62,0,0,1,6.31.83c1.6.55,3,1.93,4.36,4.12a26.75,26.75,0,0,1,3,8,58.93,58.93,0,0,1,.86,6.19c0,.69-.28,3.16-.86,7.42a99.81,99.81,0,0,1-4.48,17,81,81,0,0,1-7,15.36Q226,81.85,223.6,84.33q-6.89,7.23-12.2,10a26.16,26.16,0,0,1-12.18,2.78c-3.63,0-6.38-.48-8.28-1.44a12.46,12.46,0,0,1-5-5.34q-2-3.7-2-11.13a41.46,41.46,0,0,1,.86-8.67,90.34,90.34,0,0,1,4.92-16.08,88.13,88.13,0,0,1,7.09-14.64,84.86,84.86,0,0,1,9.09-11.75q5.42-6,8.84-8a21.35,21.35,0,0,0,3.93-2.73m3.29,34Q220.81,49,216.79,49a9.33,9.33,0,0,0-6.95,2.68q-2.26,2.47-2.27,4.33a5.3,5.3,0,0,0,1.89,3.71,5.41,5.41,0,0,0,4.17,1.65,9.06,9.06,0,0,0,5.81-2.29q3.28-2.46,3.29-5.33a4.71,4.71,0,0,0-.78-2.47" transform="translate(0 0.03)"/><path class="cls-4" d="M218.66,17.29Q220.57,15,228.77,15a20.62,20.62,0,0,1,6.31.83c1.6.55,3,1.93,4.36,4.12a26.75,26.75,0,0,1,3,8,58.93,58.93,0,0,1,.86,6.19c0,.69-.28,3.16-.86,7.42a99.81,99.81,0,0,1-4.48,17,81,81,0,0,1-7,15.36Q226,81.85,223.6,84.33q-6.89,7.23-12.2,10a26.16,26.16,0,0,1-12.18,2.78c-3.63,0-6.38-.48-8.28-1.44a12.46,12.46,0,0,1-5-5.34q-2-3.7-2-11.13a41.46,41.46,0,0,1,.86-8.67,90.34,90.34,0,0,1,4.92-16.08,88.13,88.13,0,0,1,7.09-14.64,84.86,84.86,0,0,1,9.09-11.75q5.42-6,8.84-8A21.35,21.35,0,0,0,218.66,17.29Zm3.29,34Q220.81,49,216.79,49a9.33,9.33,0,0,0-6.95,2.68q-2.26,2.47-2.27,4.33a5.3,5.3,0,0,0,1.89,3.71,5.41,5.41,0,0,0,4.17,1.65,9.06,9.06,0,0,0,5.81-2.29q3.28-2.46,3.29-5.33A4.71,4.71,0,0,0,222,51.32Z" transform="translate(0 0.03)"/><path class="cls-3" d="M293.68,16.68q4.8-1.25,15.92-1.25H311c6.82,0,27.06,0,30.07,1.35a6.94,6.94,0,0,1,4.48,6.81A22.55,22.55,0,0,1,344,30.8a41.77,41.77,0,0,1-5,9.39c-2.21,3.23-19.72,6.28-21.73,7.62a16.21,16.21,0,0,1-9.22,2.47q-9.46,0-10.24,2.89a2.93,2.93,0,0,0-.13.83c0,1.78,2.45,2.67,7.33,2.67q10.74,0,10.73,8a29.18,29.18,0,0,1-1.51,8.45,36.65,36.65,0,0,1-4.35,9.49,32,32,0,0,1-5.74,7.23q-8.85,7-26.78,7a46.58,46.58,0,0,1-5.15-.2c-5.73-.28-9.65-.78-11.75-1.53A11.22,11.22,0,0,1,255,90.33a20.5,20.5,0,0,1-2-3.81,18,18,0,0,1-.45-4.85,32.94,32.94,0,0,1,1.27-8.86q1.26-4.57,5.56-16.71,11.58-32.62,34.31-39.42" transform="translate(0 0.03)"/><path class="cls-4" d="M293.68,16.68q4.8-1.25,15.92-1.25H311c6.82,0,27.06,0,30.07,1.35a6.94,6.94,0,0,1,4.48,6.81A22.55,22.55,0,0,1,344,30.8a41.77,41.77,0,0,1-5,9.39c-2.21,3.23-19.72,6.28-21.73,7.62a16.21,16.21,0,0,1-9.22,2.47q-9.46,0-10.24,2.89a2.93,2.93,0,0,0-.13.83c0,1.78,2.45,2.67,7.33,2.67q10.74,0,10.73,8a29.18,29.18,0,0,1-1.51,8.45,36.65,36.65,0,0,1-4.35,9.49,32,32,0,0,1-5.74,7.23q-8.85,7-26.78,7a46.58,46.58,0,0,1-5.15-.2c-5.73-.28-9.65-.78-11.75-1.53A11.22,11.22,0,0,1,255,90.33a20.5,20.5,0,0,1-2-3.81,18,18,0,0,1-.45-4.85,32.94,32.94,0,0,1,1.27-8.86q1.26-4.57,5.56-16.71Q270.95,23.48,293.68,16.68Z" transform="translate(0 0.03)"/><path class="cls-5" d="M84.36,1A15.14,15.14,0,0,1,89.05.38a18.1,18.1,0,0,1,3.68.29c3.39.4,5.86,1.31,7.42,2.77s2.9,4.23,4,8.31a33.58,33.58,0,0,1,1.39,9.63q0,8.75-5.45,34.7Q95,80,88.06,93.41T70.17,113.83q-5,3.21-17.88,3.21-12.7,0-16-1.75A23.74,23.74,0,0,0,31.73,113c-1.44-.76-2.81-2.52-4.12-5.24a29.35,29.35,0,0,1-2.58-9c-.16-1.93-.24-3.58-.25-5A83,83,0,0,1,26.36,78.4a67.39,67.39,0,0,1,4.13-14.15q3.38-7.87,7.38-10.92t11.86-3.65q9.51-1.16,10.65-2c1.53-1,3.07-3.15,4.63-6.56A47.65,47.65,0,0,0,68.5,30.15,69,69,0,0,1,75.16,11Q79.54,3,84.36,1" transform="translate(0 0.03)"/><path class="cls-4" d="M84.36,1A15.14,15.14,0,0,1,89.05.38a18.1,18.1,0,0,1,3.68.29c3.39.4,5.86,1.31,7.42,2.77s2.9,4.23,4,8.31a33.58,33.58,0,0,1,1.39,9.63q0,8.75-5.45,34.7Q95,80,88.06,93.41T70.17,113.83q-5,3.21-17.88,3.21-12.7,0-16-1.75A23.74,23.74,0,0,0,31.73,113c-1.44-.76-2.81-2.52-4.12-5.24a29.35,29.35,0,0,1-2.58-9c-.16-1.93-.24-3.58-.25-5A83,83,0,0,1,26.36,78.4a67.39,67.39,0,0,1,4.13-14.15q3.38-7.87,7.38-10.92t11.86-3.65q9.51-1.16,10.65-2c1.53-1,3.07-3.15,4.63-6.56A47.65,47.65,0,0,0,68.5,30.15,69,69,0,0,1,75.16,11Q79.54,3,84.36,1Z" transform="translate(0 0.03)"/><path class="cls-5" d="M159.71,3.88Q161.36,3,172.52,3H177q14.84.6,17.89,3.51a16,16,0,0,1,4.18,5.83,15.7,15.7,0,0,1,.64,4.66,28.4,28.4,0,0,1-2.29,11.38q-6.68,16-28,16.33-13.32.59-13.32,6.42c0,1,.74,1.52,2.22,1.74s5.56.49,12.24.88q11.81.28,14.33,1.6c1.69.88,2.55,3.16,2.58,6.86q0,7.87-5.64,22.46t-11.61,22.16q-5.34,6.72-9.2,8.31T145,116.75q-14.34,0-20.23-2.19a15.05,15.05,0,0,1-8.69-8.61,14.49,14.49,0,0,1-1.14-5.82,42,42,0,0,1,1.26-8.76q2.67-12,9.08-17.34t18.45-5.7q14.2-.27,16.11-4.66c.77-1.75,1-2.82.77-3.2q-.13-.28-11-1.47-21-2-21-9,0-5.25,7.24-19.81Q146,10,159.71,3.88" transform="translate(0 0.03)"/><path class="cls-4" d="M159.71,3.88Q161.36,3,172.52,3H177q14.84.6,17.89,3.51a16,16,0,0,1,4.18,5.83,15.7,15.7,0,0,1,.64,4.66,28.4,28.4,0,0,1-2.29,11.38q-6.68,16-28,16.33-13.32.59-13.32,6.42c0,1,.74,1.52,2.22,1.74s5.56.49,12.24.88q11.81.28,14.33,1.6c1.69.88,2.55,3.16,2.58,6.86q0,7.87-5.64,22.46t-11.61,22.16q-5.34,6.72-9.2,8.31T145,116.75q-14.34,0-20.23-2.19a15.05,15.05,0,0,1-8.69-8.61,14.49,14.49,0,0,1-1.14-5.82,42,42,0,0,1,1.26-8.76q2.67-12,9.08-17.34t18.45-5.7q14.2-.27,16.11-4.66c.77-1.75,1-2.82.77-3.2q-.13-.28-11-1.47-21-2-21-9,0-5.25,7.24-19.81Q146,10,159.71,3.88Z" transform="translate(0 0.03)"/><path class="cls-5" d="M243.94,5.33q1.91-3.21,10.15-3.2a15.17,15.17,0,0,1,6.34,1.16c1.61.76,3.07,2.73,4.38,5.83a48.79,48.79,0,0,1,3,11.37c.58,4.87.85,7.78.85,8.76s-.3,4.47-.85,10.49a190.12,190.12,0,0,1-4.51,24.06,140.81,140.81,0,0,1-7,21.73q-5,11.09-7.36,14.58-6.87,10.22-12.24,14.14a20.22,20.22,0,0,1-12.25,3.94q-5.44,0-8.3-2t-5-7.58q-2-5.25-2-15.75a79.75,79.75,0,0,1,.86-12.25,168.4,168.4,0,0,1,4.94-22.75A152.83,152.83,0,0,1,222,37.12a127.23,127.23,0,0,1,9.17-16.62Q236.6,12,240,9.13a22.78,22.78,0,0,0,3.92-3.8m3.3,48.12q-1.14-3.21-5.2-3.21a8.17,8.17,0,0,0-7,3.81,11.69,11.69,0,0,0-2.29,6.1,8.92,8.92,0,0,0,1.9,5.24,4.74,4.74,0,0,0,4.19,2.36q3,0,5.84-3.21a10.94,10.94,0,0,0,3.3-7.62,8.88,8.88,0,0,0-.77-3.46Z" transform="translate(0 0.03)"/><path class="cls-4" d="M243.94,5.33q1.91-3.21,10.15-3.2a15.17,15.17,0,0,1,6.34,1.16c1.61.76,3.07,2.73,4.38,5.83a48.79,48.79,0,0,1,3,11.37c.58,4.87.85,7.78.85,8.76s-.3,4.47-.85,10.49a190.12,190.12,0,0,1-4.51,24.06,140.81,140.81,0,0,1-7,21.73q-5,11.09-7.36,14.58-6.87,10.22-12.24,14.14a20.22,20.22,0,0,1-12.25,3.94q-5.44,0-8.3-2t-5-7.58q-2-5.25-2-15.75a79.75,79.75,0,0,1,.86-12.25,168.4,168.4,0,0,1,4.94-22.75A152.83,152.83,0,0,1,222,37.12a127.23,127.23,0,0,1,9.17-16.62Q236.6,12,240,9.13A22.78,22.78,0,0,0,243.94,5.33Zm3.3,48.12q-1.14-3.21-5.2-3.21a8.17,8.17,0,0,0-7,3.81,11.69,11.69,0,0,0-2.29,6.1,8.92,8.92,0,0,0,1.9,5.24,4.74,4.74,0,0,0,4.19,2.36q3,0,5.84-3.21a10.94,10.94,0,0,0,3.3-7.62,8.88,8.88,0,0,0-.77-3.46Z" transform="translate(0 0.03)"/><path class="cls-5" d="M319.3,4.46q4.81-1.74,16-1.75h1.39c6.88,0,27.18,0,30.19,1.9s4.5,5.16,4.5,9.62a43.76,43.76,0,0,1-1.52,10.21,69,69,0,0,1-5,13.27c-2.23,4.57-19.76,8.84-21.8,10.79a12.91,12.91,0,0,1-9.26,3.5q-9.52,0-10.31,4.08a5.18,5.18,0,0,0-.13,1.17q0,3.81,7.36,3.81,10.79,0,10.78,11.37a58.2,58.2,0,0,1-1.52,12,64.57,64.57,0,0,1-4.37,13.42,45.44,45.44,0,0,1-5.78,10.2q-8.88,9.9-26.89,9.9a34.72,34.72,0,0,1-5.2-.28q-8.59-.59-11.8-2.19c-2.11-1.07-4-3.36-5.58-6.86a34.15,34.15,0,0,1-2-5.39,35.06,35.06,0,0,1-.44-6.86,64.52,64.52,0,0,1,1.3-12.53q1.28-6.42,5.58-23.62Q296.45,14.09,319.3,4.46" transform="translate(0 0.03)"/><path class="cls-4" d="M319.3,4.46q4.81-1.74,16-1.75h1.39c6.88,0,27.18,0,30.19,1.9s4.5,5.16,4.5,9.62a43.76,43.76,0,0,1-1.52,10.21,69,69,0,0,1-5,13.27c-2.23,4.57-19.76,8.84-21.8,10.79a12.91,12.91,0,0,1-9.26,3.5q-9.52,0-10.31,4.08a5.18,5.18,0,0,0-.13,1.17q0,3.81,7.36,3.81,10.79,0,10.78,11.37a58.2,58.2,0,0,1-1.52,12,64.57,64.57,0,0,1-4.37,13.42,45.44,45.44,0,0,1-5.78,10.2q-8.88,9.9-26.89,9.9a34.72,34.72,0,0,1-5.2-.28q-8.59-.59-11.8-2.19c-2.11-1.07-4-3.36-5.58-6.86a34.15,34.15,0,0,1-2-5.39,35.06,35.06,0,0,1-.44-6.86,64.52,64.52,0,0,1,1.3-12.53q1.28-6.42,5.58-23.62Q296.45,14.09,319.3,4.46Z" transform="translate(0 0.03)"/></g></g></g></g></svg>